<mxfile modified="2024-04-17T09:17:52.727Z" host="app.diagrams.net" agent="Mozilla/5.0 (Windows NT 10.0; Win64; x64) AppleWebKit/537.36 (KHTML, like Gecko) Chrome/123.0.0.0 Safari/537.36 Edg/123.0.0.0" etag="LXsrzjuEkAoL6MMJyeXS" version="24.2.5" type="github">
  <diagram id="Ht1M8jgEwFfnCIfOTk4-" name="Page-1">
    <mxGraphModel dx="1386" dy="785" grid="1" gridSize="10" guides="1" tooltips="1" connect="1" arrows="1" fold="1" page="1" pageScale="1" pageWidth="1169" pageHeight="827" math="0" shadow="0">
      <root>
        <mxCell id="0" />
        <mxCell id="1" parent="0" />
        <mxCell id="-QjtrjUzRDEMRZ5MF8oH-47" value="Serverless chat app diagram with a WebSocket API, Lambda and DynamoDB" style="text;html=1;resizable=0;points=[];autosize=1;align=left;verticalAlign=top;spacingTop=-4;fontSize=30;fontStyle=1" parent="1" vertex="1">
          <mxGeometry x="56.5" y="64.5" width="1050" height="40" as="geometry" />
        </mxCell>
        <mxCell id="-QjtrjUzRDEMRZ5MF8oH-48" value="$connect route" style="text;html=1;resizable=0;points=[];autosize=1;align=left;verticalAlign=top;spacingTop=-4;fontSize=16;" parent="1" vertex="1">
          <mxGeometry x="380" y="230" width="130" height="30" as="geometry" />
        </mxCell>
        <mxCell id="SCVMTBWpLvtzJIhz15lM-1" value="" style="line;strokeWidth=2;html=1;fontSize=14;" parent="1" vertex="1">
          <mxGeometry x="52.5" y="139.5" width="1060" height="10" as="geometry" />
        </mxCell>
        <mxCell id="ZjOsvTAfmeXpD6pfFJ75-2" value="" style="sketch=0;outlineConnect=0;fontColor=#232F3E;gradientColor=none;fillColor=#232F3D;strokeColor=none;dashed=0;verticalLabelPosition=bottom;verticalAlign=top;align=center;html=1;fontSize=12;fontStyle=0;aspect=fixed;pointerEvents=1;shape=mxgraph.aws4.users;" vertex="1" parent="1">
          <mxGeometry x="70" y="413" width="78" height="78" as="geometry" />
        </mxCell>
        <mxCell id="ZjOsvTAfmeXpD6pfFJ75-3" value="" style="sketch=0;points=[[0,0,0],[0.25,0,0],[0.5,0,0],[0.75,0,0],[1,0,0],[0,1,0],[0.25,1,0],[0.5,1,0],[0.75,1,0],[1,1,0],[0,0.25,0],[0,0.5,0],[0,0.75,0],[1,0.25,0],[1,0.5,0],[1,0.75,0]];outlineConnect=0;fontColor=#232F3E;fillColor=#E7157B;strokeColor=#ffffff;dashed=0;verticalLabelPosition=bottom;verticalAlign=top;align=center;html=1;fontSize=12;fontStyle=0;aspect=fixed;shape=mxgraph.aws4.resourceIcon;resIcon=mxgraph.aws4.api_gateway;" vertex="1" parent="1">
          <mxGeometry x="230" y="382" width="109" height="109" as="geometry" />
        </mxCell>
        <mxCell id="ZjOsvTAfmeXpD6pfFJ75-4" value="AWS Lambda Function" style="outlineConnect=0;fontColor=#232F3E;gradientColor=none;fillColor=#277116;strokeColor=none;dashed=0;verticalLabelPosition=bottom;verticalAlign=top;align=center;html=1;fontSize=12;fontStyle=0;aspect=fixed;pointerEvents=1;shape=mxgraph.aws4.lambda_function;" vertex="1" parent="1">
          <mxGeometry x="600" y="335.5" width="78" height="78" as="geometry" />
        </mxCell>
        <mxCell id="ZjOsvTAfmeXpD6pfFJ75-5" value="AWS Lambda Function" style="outlineConnect=0;fontColor=#232F3E;gradientColor=none;fillColor=#277116;strokeColor=none;dashed=0;verticalLabelPosition=bottom;verticalAlign=top;align=center;html=1;fontSize=12;fontStyle=0;aspect=fixed;pointerEvents=1;shape=mxgraph.aws4.lambda_function;" vertex="1" parent="1">
          <mxGeometry x="600" y="453" width="78" height="78" as="geometry" />
        </mxCell>
        <mxCell id="ZjOsvTAfmeXpD6pfFJ75-6" value="AWS Lambda Function" style="outlineConnect=0;fontColor=#232F3E;gradientColor=none;fillColor=#277116;strokeColor=none;dashed=0;verticalLabelPosition=bottom;verticalAlign=top;align=center;html=1;fontSize=12;fontStyle=0;aspect=fixed;pointerEvents=1;shape=mxgraph.aws4.lambda_function;" vertex="1" parent="1">
          <mxGeometry x="600" y="590" width="78" height="78" as="geometry" />
        </mxCell>
        <mxCell id="ZjOsvTAfmeXpD6pfFJ75-7" value="AWS Lambda Function" style="outlineConnect=0;fontColor=#232F3E;gradientColor=none;fillColor=#277116;strokeColor=none;dashed=0;verticalLabelPosition=bottom;verticalAlign=top;align=center;html=1;fontSize=12;fontStyle=0;aspect=fixed;pointerEvents=1;shape=mxgraph.aws4.lambda_function;" vertex="1" parent="1">
          <mxGeometry x="600" y="223" width="78" height="78" as="geometry" />
        </mxCell>
        <mxCell id="ZjOsvTAfmeXpD6pfFJ75-8" value="Amazon DynamoDB" style="sketch=0;outlineConnect=0;fontColor=#232F3E;gradientColor=none;strokeColor=#ffffff;fillColor=#232F3E;dashed=0;verticalLabelPosition=middle;verticalAlign=bottom;align=center;html=1;whiteSpace=wrap;fontSize=10;fontStyle=1;spacing=3;shape=mxgraph.aws4.productIcon;prIcon=mxgraph.aws4.dynamodb;" vertex="1" parent="1">
          <mxGeometry x="741" y="397" width="80" height="110" as="geometry" />
        </mxCell>
        <mxCell id="ZjOsvTAfmeXpD6pfFJ75-9" value="" style="endArrow=classic;startArrow=classic;html=1;rounded=0;entryX=-0.013;entryY=0.603;entryDx=0;entryDy=0;entryPerimeter=0;" edge="1" parent="1" source="ZjOsvTAfmeXpD6pfFJ75-2" target="ZjOsvTAfmeXpD6pfFJ75-3">
          <mxGeometry width="50" height="50" relative="1" as="geometry">
            <mxPoint x="148" y="460" as="sourcePoint" />
            <mxPoint x="198" y="410" as="targetPoint" />
          </mxGeometry>
        </mxCell>
        <mxCell id="ZjOsvTAfmeXpD6pfFJ75-12" value="" style="endArrow=classic;startArrow=classic;html=1;rounded=0;" edge="1" parent="1" target="ZjOsvTAfmeXpD6pfFJ75-6">
          <mxGeometry width="50" height="50" relative="1" as="geometry">
            <mxPoint x="280" y="490" as="sourcePoint" />
            <mxPoint x="472" y="550" as="targetPoint" />
            <Array as="points">
              <mxPoint x="280" y="629" />
            </Array>
          </mxGeometry>
        </mxCell>
        <mxCell id="ZjOsvTAfmeXpD6pfFJ75-13" value="" style="endArrow=classic;startArrow=classic;html=1;rounded=0;" edge="1" parent="1" source="ZjOsvTAfmeXpD6pfFJ75-3" target="ZjOsvTAfmeXpD6pfFJ75-7">
          <mxGeometry width="50" height="50" relative="1" as="geometry">
            <mxPoint x="300" y="340" as="sourcePoint" />
            <mxPoint x="412" y="340" as="targetPoint" />
            <Array as="points">
              <mxPoint x="280" y="260" />
            </Array>
          </mxGeometry>
        </mxCell>
        <mxCell id="ZjOsvTAfmeXpD6pfFJ75-14" value="" style="endArrow=classic;startArrow=classic;html=1;rounded=0;" edge="1" parent="1" source="ZjOsvTAfmeXpD6pfFJ75-7" target="ZjOsvTAfmeXpD6pfFJ75-8">
          <mxGeometry width="50" height="50" relative="1" as="geometry">
            <mxPoint x="710" y="270" as="sourcePoint" />
            <mxPoint x="653.5" y="270" as="targetPoint" />
            <Array as="points">
              <mxPoint x="780" y="262" />
            </Array>
          </mxGeometry>
        </mxCell>
        <mxCell id="ZjOsvTAfmeXpD6pfFJ75-16" value="" style="endArrow=classic;startArrow=classic;html=1;rounded=0;" edge="1" parent="1" source="ZjOsvTAfmeXpD6pfFJ75-6" target="ZjOsvTAfmeXpD6pfFJ75-8">
          <mxGeometry width="50" height="50" relative="1" as="geometry">
            <mxPoint x="630" y="590" as="sourcePoint" />
            <mxPoint x="742" y="590" as="targetPoint" />
            <Array as="points">
              <mxPoint x="781" y="629" />
            </Array>
          </mxGeometry>
        </mxCell>
        <object label="Clients" id="ZjOsvTAfmeXpD6pfFJ75-17">
          <mxCell style="text;html=1;resizable=0;points=[];autosize=1;align=left;verticalAlign=top;spacingTop=-4;fontSize=16;fontStyle=1" vertex="1" parent="1">
            <mxGeometry x="71.5" y="501" width="70" height="30" as="geometry" />
          </mxCell>
        </object>
        <mxCell id="ZjOsvTAfmeXpD6pfFJ75-18" value="WebSocket API" style="text;html=1;resizable=0;points=[];autosize=1;align=left;verticalAlign=top;spacingTop=-4;fontSize=16;fontStyle=1" vertex="1" parent="1">
          <mxGeometry x="270" y="510" width="130" height="30" as="geometry" />
        </mxCell>
        <mxCell id="ZjOsvTAfmeXpD6pfFJ75-19" value="$default route" style="text;html=1;resizable=0;points=[];autosize=1;align=left;verticalAlign=top;spacingTop=-4;fontSize=16;" vertex="1" parent="1">
          <mxGeometry x="420" y="340" width="120" height="30" as="geometry" />
        </mxCell>
        <mxCell id="ZjOsvTAfmeXpD6pfFJ75-27" value="" style="endArrow=classic;startArrow=classic;html=1;rounded=0;" edge="1" parent="1" target="ZjOsvTAfmeXpD6pfFJ75-8">
          <mxGeometry width="50" height="50" relative="1" as="geometry">
            <mxPoint x="678" y="491" as="sourcePoint" />
            <mxPoint x="728" y="441" as="targetPoint" />
          </mxGeometry>
        </mxCell>
        <mxCell id="ZjOsvTAfmeXpD6pfFJ75-29" value="" style="endArrow=classic;startArrow=classic;html=1;rounded=0;exitX=1;exitY=0.5;exitDx=0;exitDy=0;exitPerimeter=0;" edge="1" parent="1" source="ZjOsvTAfmeXpD6pfFJ75-3" target="ZjOsvTAfmeXpD6pfFJ75-4">
          <mxGeometry width="50" height="50" relative="1" as="geometry">
            <mxPoint x="440" y="439" as="sourcePoint" />
            <mxPoint x="490" y="389" as="targetPoint" />
            <Array as="points">
              <mxPoint x="410" y="437" />
              <mxPoint x="410" y="375" />
            </Array>
          </mxGeometry>
        </mxCell>
        <mxCell id="ZjOsvTAfmeXpD6pfFJ75-30" value="" style="endArrow=classic;startArrow=classic;html=1;rounded=0;exitX=1;exitY=1;exitDx=0;exitDy=0;exitPerimeter=0;" edge="1" parent="1" source="ZjOsvTAfmeXpD6pfFJ75-3" target="ZjOsvTAfmeXpD6pfFJ75-5">
          <mxGeometry width="50" height="50" relative="1" as="geometry">
            <mxPoint x="425" y="480" as="sourcePoint" />
            <mxPoint x="475" y="430" as="targetPoint" />
          </mxGeometry>
        </mxCell>
        <mxCell id="ZjOsvTAfmeXpD6pfFJ75-31" value="send message route" style="text;html=1;resizable=0;points=[];autosize=1;align=left;verticalAlign=top;spacingTop=-4;fontSize=16;" vertex="1" parent="1">
          <mxGeometry x="440" y="470" width="170" height="30" as="geometry" />
        </mxCell>
        <mxCell id="ZjOsvTAfmeXpD6pfFJ75-33" value="$disconnect route" style="text;html=1;resizable=0;points=[];autosize=1;align=left;verticalAlign=top;spacingTop=-4;fontSize=16;" vertex="1" parent="1">
          <mxGeometry x="380" y="600" width="150" height="30" as="geometry" />
        </mxCell>
      </root>
    </mxGraphModel>
  </diagram>
</mxfile>
